<svg xmlns="http://www.w3.org/2000/svg" viewBox="0 0 1800 520" width="1800" height="520" role="img" aria-label="RocketRide Workshops">
  <defs>
    <linearGradient id="bg" x1="0%" y1="0%" x2="100%" y2="100%">
      <stop offset="0%" stop-color="#1a0d33"/>
      <stop offset="55%" stop-color="#2a1452"/>
      <stop offset="100%" stop-color="#4a2270"/>
    </linearGradient>
    <radialGradient id="glow" cx="50%" cy="38%" r="65%">
      <stop offset="0%" stop-color="#7a3899" stop-opacity="0.45"/>
      <stop offset="100%" stop-color="#1a0d33" stop-opacity="0"/>
    </radialGradient>
  </defs>

  <rect width="1800" height="520" fill="url(#bg)"/>
  <rect width="1800" height="520" fill="url(#glow)"/>

  <g fill="white" opacity="0.7">
    <circle cx="60" cy="40" r="1.2"/>
    <circle cx="140" cy="80" r="1"/>
    <circle cx="220" cy="35" r="1.6"/>
    <circle cx="310" cy="100" r="0.9"/>
    <circle cx="380" cy="60" r="1.1"/>
    <circle cx="450" cy="25" r="1"/>
    <circle cx="520" cy="90" r="1.4"/>
    <circle cx="620" cy="50" r="0.8"/>
    <circle cx="690" cy="20" r="1.2"/>
    <circle cx="780" cy="70" r="1"/>
    <circle cx="860" cy="35" r="1.5"/>
    <circle cx="970" cy="80" r="0.9"/>
    <circle cx="1050" cy="40" r="1.3"/>
    <circle cx="1130" cy="20" r="1"/>
    <circle cx="1210" cy="75" r="1.2"/>
    <circle cx="1290" cy="55" r="0.8"/>
    <circle cx="1370" cy="30" r="1.6"/>
    <circle cx="1450" cy="85" r="1"/>
    <circle cx="1530" cy="50" r="1.1"/>
    <circle cx="1620" cy="25" r="1.3"/>
    <circle cx="1700" cy="90" r="0.9"/>
    <circle cx="1770" cy="40" r="1.2"/>

    <circle cx="80" cy="160" r="0.9"/>
    <circle cx="180" cy="200" r="1.2"/>
    <circle cx="280" cy="180" r="0.8"/>
    <circle cx="360" cy="220" r="1.1"/>
    <circle cx="440" cy="155" r="1.4"/>
    <circle cx="520" cy="200" r="0.9"/>
    <circle cx="620" cy="170" r="1.2"/>
    <circle cx="720" cy="210" r="0.8"/>
    <circle cx="1080" cy="195" r="1.1"/>
    <circle cx="1180" cy="170" r="1.3"/>
    <circle cx="1280" cy="220" r="0.9"/>
    <circle cx="1380" cy="180" r="1.2"/>
    <circle cx="1480" cy="200" r="0.8"/>
    <circle cx="1580" cy="160" r="1"/>
    <circle cx="1680" cy="210" r="1.3"/>
    <circle cx="1750" cy="180" r="0.9"/>

    <circle cx="100" cy="320" r="1.1"/>
    <circle cx="220" cy="380" r="0.9"/>
    <circle cx="340" cy="350" r="1.2"/>
    <circle cx="460" cy="400" r="0.8"/>
    <circle cx="1340" cy="370" r="1"/>
    <circle cx="1460" cy="340" r="1.2"/>
    <circle cx="1580" cy="390" r="0.9"/>
    <circle cx="1700" cy="360" r="1.3"/>
    <circle cx="200" cy="450" r="1"/>
    <circle cx="380" cy="475" r="1.2"/>
    <circle cx="1450" cy="460" r="1"/>
    <circle cx="1620" cy="480" r="1.3"/>
  </g>

  <g transform="translate(805, 60) scale(1)">
    <path d="M159.5 161.4L153.7 167.2C151.9 169 148.9 169 147 167.2L126.6 146.8C115.6 135.8 115.6 118 126.6 107C138.1 95.5 138.1 76.9 126.6 65.4L125.1 63.9C113.6 52.4 95 52.4 83.5 63.9C72.5 74.9 54.6 74.9 43.6 63.9L23.2 43.5C21.4 41.7 21.4 38.7 23.2 36.8L29 31C37 23 49.1 20.5 59.6 24.9L87.5 36.3C97.3 40.1 108.4 38 116.3 31.1L137 10.4C138.6 8.9 140.4 7.4 142.5 6.2C146.2 4.1 150.3 3 154.5 2.6L185.4 0C188.3-.3 190.8 2.2 190.5 5.1L187.8 36.4C187.3 42.8 184.5 48.8 180.1 53.5L160.5 73.1C152.5 81.2 150.1 93.3 154.5 103.8L155.5 106.2L161.2 120L165.6 130.9C169.9 141.4 167.5 153.5 159.5 161.5Z" fill="white"/>
    <path d="M.8 190.3C-.2 189.3-.3 187.6.6 186.4L21.1 162C31.1 150 37.9 137.7 41.3 125.3C43.6 116.6 44.6 108.5 44.1 101.2C44.1 100.3 44.4 99.4 45.1 98.8C45.8 98.2 46.8 97.9 47.7 98.1C65 101.6 83.5 98.3 98.5 88.9C99.6 88.2 101.1 88.4 102 89.3C102.9 90.2 103.1 91.7 102.4 92.8C93 107.8 89.7 126.3 93.2 143.5C93.4 144.3 93.2 145.2 92.6 145.9C92 146.6 91 147.2 90.1 147.1C82.8 146.6 74.6 147.5 66 149.9C53.6 153.2 41.2 160 29.3 170.1L4.9 190.6C3.8 191.5 2.1 191.5 1 190.4H.8Z" fill="#F93822"/>
  </g>

  <text x="900" y="350" text-anchor="middle" fill="white"
        font-family="-apple-system, BlinkMacSystemFont, 'Segoe UI', Roboto, 'Helvetica Neue', Arial, sans-serif"
        font-size="108" font-weight="600" letter-spacing="-2">RocketRide Workshops</text>

  <line x1="600" y1="395" x2="1200" y2="395" stroke="#9fb8e8" stroke-width="1" opacity="0.4"/>

  <text x="900" y="438" text-anchor="middle" fill="#9fb8e8"
        font-family="-apple-system, BlinkMacSystemFont, 'Segoe UI', Roboto, 'Helvetica Neue', Arial, sans-serif"
        font-size="30" font-weight="400" letter-spacing="8">HANDS-ON LEARNING FOR THE AI RUNTIME</text>
</svg>
